<?xml version="1.0" encoding="UTF-8"?>
<svg width="281px" height="96px" viewBox="0 0 281 96" version="1.1" xmlns="http://www.w3.org/2000/svg" xmlns:xlink="http://www.w3.org/1999/xlink">
    <!-- Generator: Sketch 59.1 (86144) - https://sketch.com -->
    <title>IQ_logo_teaser</title>
    <desc>Created with Sketch.</desc>
    <defs>
        <linearGradient x1="50%" y1="0%" x2="50%" y2="100%" id="linearGradient-1">
            <stop stop-color="#101010" offset="0%"></stop>
            <stop stop-color="#3E3E3E" offset="100%"></stop>
        </linearGradient>
        <linearGradient x1="435.878906%" y1="-211.226572%" x2="-12.96875%" y2="94.2358592%" id="linearGradient-2">
            <stop stop-color="#FFFFFF" offset="0%"></stop>
            <stop stop-color="#000000" offset="100%"></stop>
        </linearGradient>
    </defs>
    <g id="Page-1" stroke="none" stroke-width="1" fill="none" fill-rule="evenodd">
        <g id="Artboard" transform="translate(-402.000000, -151.000000)">
            <g id="IQ_logo_teaser" transform="translate(402.000000, 151.000000)">
                <path d="M219.543103,1 C246.305108,1 268,22.2664744 268,48.5 C268,74.7335256 246.305108,96 219.543103,96 C192.781098,96 171.086207,74.7335256 171.086207,48.5 C171.086207,22.2664744 192.781098,1 219.543103,1 Z M140.25,46.6 C150.329197,46.6 158.5,54.7708033 158.5,64.85 L158.5,77.75 C158.5,87.8291967 150.329197,96 140.25,96 C130.170803,96 122,87.8291967 122,77.75 L122,64.85 C122,54.7708033 130.170803,46.6 140.25,46.6 Z M220.889128,30.8571429 C210.977275,30.8571429 202.94213,38.9586569 202.94213,48.952381 C202.94213,58.946105 210.977275,67.047619 220.889128,67.047619 C230.800982,67.047619 238.836127,58.946105 238.836127,48.952381 C238.836127,38.9586569 230.800982,30.8571429 220.889128,30.8571429 Z" id="Combined-Shape" fill="url(#linearGradient-1)"></path>
                <circle id="Oval-Copy-8" fill="#56DEC0" cx="262.5" cy="77.5" r="18.5"></circle>
                <circle id="Oval-Copy-10" fill="#56DEC0" cx="140.5" cy="18.5" r="18.5"></circle>
                <path d="M82.69375,58.2666667 C92.8040127,58.2666667 101,66.4897034 101,76.6333333 C101,86.7769632 92.8040127,95 82.69375,95 C72.5834873,95 64.3875,86.7769632 64.3875,76.6333333 C64.3875,66.4897034 72.5834873,58.2666667 82.69375,58.2666667 Z M65.1462469,2.74622266 C74.6021854,8.12225894 79.0567032,20.3190679 72.9475032,28.3770493 C67.9266788,34.9994729 60.9897841,37.2813595 54.3799345,39.0520338 C44.2804887,41.7575159 37.203794,51.3006432 38.546206,63.2550802 C39.533677,72.0486995 39.7796903,81.4278125 37.0454792,86.0913003 C31.8980556,94.8707787 20.0596916,97.6298136 10.6037531,92.2537773 C1.14781464,86.8777411 -3.30670317,74.6809321 2.80249676,66.6229507 C7.82332122,60.0005271 14.9264847,58.5070529 21.3700655,55.9479662 C33.3149562,51.2040183 37.0454792,43.1182215 37.203794,31.7449198 C37.327389,22.8658782 35.9703097,13.5721875 38.7045208,8.90869972 C43.8519444,0.129221335 55.6903084,-2.62981362 65.1462469,2.74622266 Z" id="Combined-Shape" fill="url(#linearGradient-2)"></path>
            </g>
        </g>
    </g>
</svg>